/* XPM */
static char *result[] = {
/* columns rows colors chars-per-pixel */
"64 66 67 1 ",
"  c #040405",
". c #01010A",
"X c #0B0B0B",
"o c #010113",
"O c #01011C",
"+ c #111111",
"@ c #17171B",
"# c #1C1C1C",
"$ c #000024",
"% c #0E0E21",
"& c #00002B",
"* c #131326",
"= c #1E1E23",
"- c #16162E",
"; c #1D1D2D",
": c #000034",
"> c #00003B",
", c #0B0B3D",
"< c #151534",
"1 c #1B1B32",
"2 c #1A1A3A",
"3 c #202020",
"4 c #33333D",
"5 c gray22",
"6 c #000043",
"7 c #090942",
"8 c #00004C",
"9 c #0D0D4F",
"0 c #151544",
"q c #14144C",
"w c #000053",
"e c #090954",
"r c #00005B",
"t c #09095D",
"y c #131354",
"u c #1A1A56",
"i c #10105E",
"p c #25254B",
"a c #000064",
"s c #0C0C64",
"d c #00006C",
"f c #0A0A69",
"g c #000073",
"h c #0A0A74",
"j c #00007C",
"k c #000083",
"l c #00008B",
"z c #000093",
"x c #00009A",
"c c #0000A3",
"v c #0000AC",
"b c #0000B1",
"n c #0F0FB4",
"m c #0000BB",
"M c #1010B8",
"N c #0202C4",
"B c #090AC4",
"V c #0000CB",
"C c #0909CC",
"Z c #0000D4",
"A c #0F0FD6",
"S c #0000DB",
"D c #1212D9",
"F c #2121D0",
"G c #1416E2",
"H c #1D1DE3",
"J c #0000F5",
/* pixels */
"xxzxxzxxxxzxxxxzxxzxxlklkgg8X1xxxzxxzxlkjjjr 1xxxzxxzxkjgr>&cccc",
"zxkzjlxljjlkglllggzkggggdaw> 1xzlljzxlkjjjd> 1xvcvcvvvvvxj8&cxkl",
"ljjklljgkllkalkrgggkkggdrrw>X1zlzzklljjgkkr>X1xcbbxvmvvczj8&xxxl",
"jldkgjjggkkkggagdkaggarrw8w> 1zlkkkkjjgdarw: 1xvcxbbvcxlkg6$jgjg",
"jjkzlgdggjlkkkgjddrdddarr88> 1zzjzzjddddaw8>X1xvxbHNccxlgd8$kgdr",
"kkxcxlkkkzxzlkdjwdrdgggar88>X1xxlkkgaggggrw: 1xvvcBmcxclgd6$kdww",
"zlxccxzkgkzzkkggrdaadddawww> 1xzlgjjggjjdw8: 1xcbcxccxxkdd6&kr8w",
"ljlxxzkjggjjkjjarddwaddrwww>X1zzjjdjlljdarw>X1xcmcczlxxlga6.>$$&",
"kgkzljjjljardddwddgrraarww8>X1xkjgdgklgarrw> 1xcmxckjkllgw:o6ww8",
"jjkljdglxkaw88rwdadaradaw88: 1ljgddgjgdawww:X1xcvcckjjjjdw:$zcxc",
"gjljkggkkgaw888argrwrdddrww: ;kjgaadjdaawww: 1xcbbclkjkjar>&zxkx",
"glgdkkdarrar88wwrd666rddr88>X;kjgaaadrrwrr8: 1xcbbczkjjjaw:$lzkj",
"jkgadgdraaaarwa8r866>8rrwww: ;kggdawwrwwwww: 1xcvvzlljgdr8:$lzja",
"kgddarrwwrarrwr888866688888: ;jjaar8888wwww:X1xcxvllkkjdr8>$jgdw",
"agw8wwrrw8668688886>66>66>6: ;d8d886666>6>6& ;lbcvvklkdrw8&Oaw86",
"...... .....                 #              X1lbcxlljjdwww: ....",
"cxcxzxzxxczzxk3333333333333#33=3333#33333#3331lcblvjkgga88:Ogmmm",
"xlzvvxllxlkzka 3#edjgjjlzkfa68>,3337ejkkkgfre1lbcvllvxjdrw&$lmNZ",
"llkzxlgjljgjkg 3edjklkzxczlgrrrw633ejlkjjggd6Oklxcvzljgdrw>&xNZJ",
"kxxzljggkjdgga 3jklxxxcljkjrarwra;3tlkdaadrrwokccvvlkgawww>&cmNS",
"kcvckgjkjjgrgr ,xlxlxxlfrgdrwwwrdX=fkljaarwa8ojvccjdjgarrw:&cmmb",
"kzccjjjgdaaadr 6xzcxxxldadawwwrwa.#rkkjdrrrw>ojxxxdadddr88:&bmmc",
"gjlxkjgjdraar8.8zxcxvxlgdarwwwarw #egdawwrww6oglxxjdadaw88::vmvv",
"gkjlkjjjdadar>.rzxcllkkgaaarrrwrr.#<:$$O$$$$Oogllcjdaarw8w:&cmcc",
"kklkkkkjddawr>.akzljjjjaraggaarra.9irrw8866& %jllxkgdarww8&&cmvx",
"kjlzzkjjjgaw86.alljklkgradkzkgaaa.kcvvxlkjkw 1lxxzlgdarrww:&cmbb",
"ggkcckgjjjgrw8.rkjgzxlkggjzvlgard.kxvxljggd8X1zvcczjgdrwww:&cmbm",
"kkzxcxkggggr86 8gjglnclkkjlljdgad.jzzlkgkjr6 1xvcbxljdrwwr>&xmmm",
"xllzxxgadrrr8> >gdjzFMzllkjkjddaa.kzljkkjgd8 1xczczljdrwwr:$lmbm",
"jzzzzzgrwww886 :dgjlzxzlzxlkjawd8 kcxzljadd6X1zzlzjkjgr888>Olmvm",
"kzxzlgarw8w>66  djkzklllxljlrwrr8.jvvxldrrr6 1zlxkgggdr888:$lmmv",
"kjzzjarw8w8668  wddkgklzlxla8rd88 klxxkgaar>X1xlvxlkdawrr8:$lmmc",
"jgjjgawadddw88 38wdggdjljdgjad888 klkzkarrr:X1zxcbxkdrdgr8:$kmcm",
"zlddddrrdgaw8> 33>8888w888w888886 klzdrddrw: 1xxccxzlgaaaw:$lmcm",
"ljjgarwwraaw8> 33=   . . .     .  jzlgarrw8>X1xvvxlllkjdw8:$lmmj",
"ljgdddwww8w8w6 3#9888888www8888>@#kljdw8ww8: 1xbbxljkkkgdw:Ojmvb",
"jgagdgr8666886 33erdjjgjjggdarw8X3kzkga8ww8: 1xlblcjdjjdrw:Ogmxz",
"addadgr6>6>8w6 #3wdjkkkjgggddgr8 3kxjjdrw88: 1xzcxzkdaarrw:Ogvcl",
"drdrarw866668> 3#ejjgjlgdgardjar #kxkljarw8>X1xvxzlgrwrww8:Ogclk",
"jgdaaww866668> 33wkjgjjjgddwrdaw #kzzzkgarw> 1xblzldr8wrw8&Ogckk",
"kgaadrw88868w6 33ejjkjddarrw8rw8 #kllkgdarw>X1zcllkdarwww8:Odzlk",
"6>&:>:&$&&$&&$ ##wjkjdrwwew8rrw8 #jzjgdarrw: ;lxljadrwww88:o7668",
"XX+XOO&&:::::&$<<7686::&&:&:>>>& 3hzjaaar8w> 1kkddwarww888:X=&&&",
"0qyyfgjjkzllkjjgdy7>:::&OXXXXXXX 3jzjarrw8w>X;jgww8rrww88w&X;ara",
"zxvvbvvvcvvvvvbcccczzkkg7#=-*<1<33hjjar8888: ;t8>>::::>>>>$X-r8a",
"zvvvvvvccvvzzcvcxxxkgjga&+-8rada#3jgjdr8888>X3#XX  X XX XX +=777",
"xbvcxcccvvczxvvcczkzgarw:X-allxa #fggarrw8w> 3322222222222222222",
"bvvccvbxkzxbclxkzllgjaww&X<axxkw #rawww8666: 3;bbbbbbbvvbvvvvccc",
"bxcxcccxlkzvzjkzgkllgdw8&X<dcczg 33X........X3;bbbbccxxcccxxxcvz",
"bbcljzcxzllcbvxxxgkkjw8w&X<dzgr8 3gkzcxzzzkjf3;bccvvxbmvcxzzbvll",
"bbzzcvllxcczjxcJxlaarwww&X2dka88 #jzcxlxxzlaw ;bbccxvvmzgjkjjkaj",
"bbvvclxzzlgklkzclgkkgrrw&X2dgr8w #kccxljjgaw6 ;bcbcxccxldgjllggg",
"bxvxzzcczkggjzzdgkggawrr&X=*oo.. #jzlkgdrrw8> ;bbvVVczzljgjzjjkr",
"bczlcmmclkkgjxzgjgkdarww&X33@#@#+3%$$OOOoooo. ;bcxVZmvcxlllggkkw",
"bxczmHAvllzjjjkkjjgw88w8&X2fffhhhhdddaarrww6,@;bcxxmmvzkkkjjkkgr",
"bcvcmACclkzkaaagjjd86688$X0lllkxllzxlklkjgda6+;bxxxxxzkkkjgkljar",
"bxvvvbcljjjdrrradda86>68&X0lljjllzxxlkkkdarw> 3mcxzljkjjkkkkkdrw",
"ccvcxzjjlkjgawrwraaww888$Xqlkllzzzzxzlkjgarw> ;bvxljggggjkkgarrw",
"ccvczjkklzlkdawradwwrw88&Xqzllxzkkklzzzkgdrw6 3bcczkjdrrdggr888r",
"bxvcljkjjlzldawrggrww8ww&+0zlllkkgjkzzljgrww6 1mvvczjgr8rar88>6w",
"vxxzkkgddjzlkarwgdgwwwww&X0lklkjlggjkkjgarw8> ;vcxzkjjawwrww86>6",
"cxjgjkggddjjgrrwaggw8rw8$X0llkgdggdddgddrw88> ;czzlxlggarrwr8886",
"cxgagagjdgdwwwwr8aaw8www&X2klldadrdaaaarwwww> ;xczgkgddrww88wwww",
"zzjjagawwwrarrra88w88888&X0jkjdaraarwrr8wrr8>X;xgkgjkgarwwwwww88",
"zlgjkgaaaaaawrrrwrrrrrrr:+0ggaaaaaarrrrrrrare33zkgjgaarrrrwrrrrr",
"dgdggdgggdggdggggdgddgdgu5pddggggdgggddgdgggs5phgddgggdggggdgddg"
};
